<svg width="32" height="32" viewBox="0 0 32 32" fill="none" xmlns="http://www.w3.org/2000/svg">
<path d="M27.083 9.8915C26.954 9.9725 23.8825 11.677 23.8825 15.4565C24.0275 19.767 27.7585 21.2785 27.8225 21.2785C27.7585 21.3595 27.259 23.338 25.78 25.412C24.6065 27.199 23.3035 29 21.325 29C19.443 29 18.7675 27.8095 16.596 27.8095C14.264 27.8095 13.604 29 11.8185 29C9.84004 29 8.44054 27.1025 7.20254 25.3325C5.59454 23.016 4.22754 19.381 4.17904 15.891C4.14654 14.0415 4.50104 12.2235 5.40104 10.6795C6.67154 8.5235 8.93954 7.0605 11.4165 7.012C13.314 6.948 15.003 8.315 16.1615 8.315C17.2715 8.315 19.3465 7.012 21.694 7.012C22.7075 7.013 25.41 7.318 27.083 9.8915ZM16.001 6.6425C15.663 4.9535 16.596 3.2645 17.4645 2.187C18.5745 0.8845 20.3275 0 21.839 0C21.9355 1.689 21.324 3.3455 20.231 4.552C19.25 5.855 17.561 6.8355 16.001 6.6425Z" fill="#F7F7F7"/>
</svg>
