<svg width="118" height="118" viewBox="0 0 118 118" fill="none" xmlns="http://www.w3.org/2000/svg">
<g clip-path="url(#clip0_669_48268)">
<path opacity="0.35" d="M59 58.9999C72.577 58.9999 83.5833 47.9936 83.5833 34.4166C83.5833 20.8396 72.577 9.83325 59 9.83325C45.423 9.83325 34.4166 20.8396 34.4166 34.4166C34.4166 47.9936 45.423 58.9999 59 58.9999Z" fill="#026BCF"/>
<path d="M68.8333 93.4167C68.8333 96.9075 69.5708 100.251 70.8492 103.25H29.5C21.3383 103.25 14.75 96.6617 14.75 88.5C14.75 80.3383 21.3383 73.75 29.5 73.75H78.6667C72.7175 78.2242 68.8333 85.4025 68.8333 93.4167Z" fill="#026BCF"/>
<path opacity="0.35" d="M23.4328 57.8495C27.6562 53.6261 29.0378 47.5392 29.4803 43.4781C29.736 41.0935 27.7447 39.0973 25.3602 39.3579C21.299 39.7955 15.2122 41.1771 10.9887 45.4054C6.76532 49.6337 5.38374 55.7157 4.94124 59.7768C4.68557 62.1614 6.67682 64.1576 9.06141 63.897C13.1226 63.4545 19.2094 62.0729 23.4328 57.8495Z" fill="#026BCF"/>
<path opacity="0.35" d="M93.4167 68.8333C87.8854 68.8333 82.777 70.6623 78.6667 73.7499C68.8333 73.7499 59 93.4166 59 93.4166C59 93.4166 63.9167 98.3333 70.7656 102.984C74.4973 111.805 83.2392 118 93.4167 118C106.987 118 118 106.987 118 93.4166C118 79.8466 106.987 68.8333 93.4167 68.8333Z" fill="#026BCF"/>
<path d="M106.298 91.5484L94.0067 103.84C93.1708 104.627 92.0892 105.118 90.9583 105.118C89.8275 105.118 88.7458 104.627 87.91 103.84L80.535 96.4651C78.8633 94.7934 78.8633 92.0401 80.535 90.3684C82.2067 88.6967 84.96 88.6967 86.6317 90.3684L90.9583 94.6951L100.202 85.4517C101.873 83.7801 104.627 83.7801 106.298 85.4517C107.97 87.1234 107.97 89.8768 106.298 91.5484Z" fill="#026BCF"/>
</g>
<defs>
<clipPath id="clip0_669_48268">
<rect width="118" height="118" fill="white"/>
</clipPath>
</defs>
</svg>
