<svg width="118" height="118" viewBox="0 0 118 118" fill="none" xmlns="http://www.w3.org/2000/svg">
<path opacity="0.35" d="M98.3334 24.5833C98.3334 16.4363 91.7303 9.83325 83.5834 9.83325H34.4167C26.2698 9.83325 19.6667 16.4363 19.6667 24.5833V88.4999C19.6667 93.9328 24.0672 98.3333 29.5001 98.3333H88.5001C93.933 98.3333 98.3334 93.9328 98.3334 88.4999V24.5833Z" fill="#026BCF"/>
<path d="M83.5834 68.8333H34.4167C26.2698 68.8333 19.6667 75.4363 19.6667 83.5833V93.4166C19.6667 101.563 26.2698 108.167 34.4167 108.167H83.5834C91.7303 108.167 98.3334 101.563 98.3334 93.4166V83.5833C98.3334 75.4363 91.7303 68.8333 83.5834 68.8333ZM83.5834 93.4166C80.8694 93.4166 78.6667 91.2139 78.6667 88.4999C78.6667 85.7859 80.8694 83.5833 83.5834 83.5833C86.2974 83.5833 88.5001 85.7859 88.5001 88.4999C88.5001 91.2139 86.2974 93.4166 83.5834 93.4166Z" fill="#026BCF"/>
<path d="M63.9166 49.1667V24.5834C63.9166 21.8694 61.7139 19.6667 58.9999 19.6667C56.2859 19.6667 54.0833 21.8694 54.0833 24.5834V49.1667H63.9166Z" fill="#026BCF"/>
<path d="M46.8166 39.3333C44.5402 39.3333 43.3995 42.0768 44.9975 43.6943L56.3746 55.1797C57.8201 56.6399 60.185 56.6399 61.6305 55.1797L73.0077 43.6943C74.6056 42.0768 73.46 39.3333 71.1836 39.3333H46.8166Z" fill="#026BCF"/>
</svg>
