<svg width="64" height="64" viewBox="0 0 64 64" fill="none" xmlns="http://www.w3.org/2000/svg">
<path opacity="0.35" d="M56 26.6667H8L9.68533 14.8693C10.248 10.928 13.624 8 17.6053 8H46.3947C50.376 8 53.752 10.928 54.3147 14.8693L56 26.6667Z" fill="#026BCF"/>
<path opacity="0.35" d="M53.256 38.888C53.2933 38.3733 53.3333 37.8587 53.3333 37.3333C53.3333 25.552 43.7813 24 32 24C20.2187 24 10.6667 25.552 10.6667 37.3333C10.6667 37.8587 10.7067 38.3733 10.744 38.888C9.15467 39.416 8 40.8987 8 42.6667C8 44.8747 9.792 46.6667 12 46.6667C12.2747 46.6667 12.5413 46.64 12.8 46.5867C16.248 53.728 23.5387 58.6667 32 58.6667C40.4613 58.6667 47.752 53.728 51.2 46.5867C51.4587 46.64 51.7253 46.6667 52 46.6667C54.208 46.6667 56 44.8747 56 42.6667C56 40.8987 54.8453 39.416 53.256 38.888Z" fill="#026BCF"/>
<path d="M56 26.6667C56 26.6667 56 32 56 37.3334C56 38.8 54.8 40 53.3333 40C51.8667 40 50.6667 38.88 50.6667 37.3334C50.6667 32.9067 47.0933 29.3334 42.6667 29.3334H21.3333C16.9067 29.3334 13.3333 32.96 13.3333 37.3334C13.3333 39.2267 12.1333 40 10.6667 40C9.2 40 8 38.8 8 37.3334C8 32 8 26.6667 8 26.6667C8 26.6667 16 21.3334 32 21.3334C48 21.3334 56 26.6667 56 26.6667Z" fill="#026BCF"/>
<path d="M32 2.66663C27.5733 2.66663 24 6.23996 24 10.6666C24 15.0933 27.5733 18.6666 32 18.6666C36.4267 18.6666 40 15.0933 40 10.6666C40 6.23996 36.4267 2.66663 32 2.66663ZM32 13.3333C30.5333 13.3333 29.3333 12.1333 29.3333 10.6666C29.3333 9.19996 30.5333 7.99996 32 7.99996C33.4667 7.99996 34.6667 9.19996 34.6667 10.6666C34.6667 12.1333 33.4667 13.3333 32 13.3333Z" fill="#026BCF"/>
</svg>
