<svg width="64" height="64" viewBox="0 0 64 64" fill="none" xmlns="http://www.w3.org/2000/svg">
<path opacity="0.35" d="M50.6668 10.6667H13.3335C8.91483 10.6667 5.3335 14.2481 5.3335 18.6667V32.0001V48.0001C5.3335 52.4187 8.91483 56.0001 13.3335 56.0001H50.6668C55.0855 56.0001 58.6668 52.4187 58.6668 48.0001V32.0001V18.6667C58.6668 14.2481 55.0855 10.6667 50.6668 10.6667Z" fill="#026BCF"/>
<path d="M34.6667 5.33325C33.6907 5.33325 30.3093 5.33325 29.3333 5.33325C26.3867 5.33325 24 7.71992 24 10.6666H40C40 7.71992 37.6133 5.33325 34.6667 5.33325Z" fill="#026BCF"/>
<path d="M32.0002 34.6666C35.6821 34.6666 38.6668 31.6818 38.6668 27.9999C38.6668 24.318 35.6821 21.3333 32.0002 21.3333C28.3183 21.3333 25.3335 24.318 25.3335 27.9999C25.3335 31.6818 28.3183 34.6666 32.0002 34.6666Z" fill="#026BCF"/>
<path d="M38.6667 37.3333H25.3333C22.3867 37.3333 20 39.7199 20 42.6666C20 45.6133 22.3867 47.9999 25.3333 47.9999H38.6667C41.6133 47.9999 44 45.6133 44 42.6666C44 39.7199 41.6133 37.3333 38.6667 37.3333Z" fill="#026BCF"/>
</svg>
