<svg width="64" height="64" viewBox="0 0 64 64" fill="none" xmlns="http://www.w3.org/2000/svg">
<g clip-path="url(#clip0_669_48232)">
<path opacity="0.35" d="M53.3332 37.3333C57.0151 37.3333 59.9998 34.3486 59.9998 30.6667C59.9998 26.9848 57.0151 24 53.3332 24C49.6513 24 46.6665 26.9848 46.6665 30.6667C46.6665 34.3486 49.6513 37.3333 53.3332 37.3333Z" fill="#026BCF"/>
<path opacity="0.35" d="M53.3335 45.3333L58.2935 40.3733C57.5629 40.1547 56.8029 40 56.0002 40H53.3335H50.6669C49.8642 40 49.1042 40.1547 48.3735 40.3733L53.3335 45.3333Z" fill="#026BCF"/>
<path opacity="0.35" d="M51.032 54.5359L53.3333 45.3333L55.6347 54.5359C55.8613 55.4453 55.5947 56.4052 54.9333 57.0692L53.3333 58.6666L51.7333 57.0666C51.072 56.4053 50.8053 55.4426 51.032 54.5359Z" fill="#026BCF"/>
<path opacity="0.35" d="M21.9231 16.556C24.0079 14.4711 24.8529 11.9359 23.8105 10.8935C22.768 9.85105 20.2328 10.6962 18.148 12.7811C16.0631 14.866 15.2181 17.4012 16.2606 18.4436C17.303 19.486 19.8382 18.6409 21.9231 16.556Z" fill="#026BCF"/>
<path opacity="0.35" d="M32.0348 16.0001C35.7167 16.0001 38.7015 13.0153 38.7015 9.33341C38.7015 5.65152 35.7167 2.66675 32.0348 2.66675C28.3529 2.66675 25.3682 5.65152 25.3682 9.33341C25.3682 13.0153 28.3529 16.0001 32.0348 16.0001Z" fill="#026BCF"/>
<path opacity="0.35" d="M32.0349 24.0001L36.6216 19.4134C35.6056 18.9494 34.4909 18.6667 33.3122 18.6667H32.0349H30.7576C29.5789 18.6667 28.4669 18.9494 27.4482 19.4134L32.0349 24.0001Z" fill="#026BCF"/>
<path opacity="0.35" d="M29.7361 33.2027L32.0348 24L34.3361 33.2027C34.5628 34.112 34.2961 35.072 33.6348 35.736L32.0348 37.336L30.4348 35.736C29.7734 35.072 29.5068 34.1093 29.7361 33.2027Z" fill="#026BCF"/>
<path d="M41.192 25.288C40.7253 22.6213 38.9573 20.4827 36.6213 19.4133L32.0346 24L34.336 33.2027C34.5626 34.112 34.296 35.072 33.6346 35.736L32.0346 37.336L30.4346 35.736C29.7733 35.0747 29.5066 34.112 29.7333 33.2027L32.0346 24L27.448 19.4133C25.112 20.48 23.344 22.6187 22.8773 25.288L20.8506 36.8747C20.5653 38.5067 21.8213 40 23.4773 40H40.592C42.248 40 43.504 38.5067 43.2186 36.8747L41.192 25.288Z" fill="#026BCF"/>
<path d="M58.6665 61.3333C61.6132 61.3333 63.9998 58.9466 63.9998 56V48C63.9998 44.384 61.5865 41.3653 58.2932 40.3733L53.3332 45.3333L55.6345 54.536C55.8612 55.4453 55.5945 56.4053 54.9332 57.0693L53.3332 58.6666L51.7332 57.0666C51.0718 56.4053 50.8052 55.4426 51.0318 54.5333L53.3332 45.3333L48.3732 40.3733C45.0798 41.3653 42.6665 44.384 42.6665 48V56C42.6665 58.9466 45.0532 61.3333 47.9998 61.3333H58.6665Z" fill="#026BCF"/>
<path opacity="0.35" d="M10.6667 37.3333C14.3486 37.3333 17.3333 34.3486 17.3333 30.6667C17.3333 26.9848 14.3486 24 10.6667 24C6.98477 24 4 26.9848 4 30.6667C4 34.3486 6.98477 37.3333 10.6667 37.3333Z" fill="#026BCF"/>
<path opacity="0.35" d="M10.6665 45.3333L15.6265 40.3733C14.8959 40.1547 14.1359 40 13.3332 40H10.6665H7.99988C7.19721 40 6.43721 40.1547 5.70654 40.3733L10.6665 45.3333Z" fill="#026BCF"/>
<path opacity="0.35" d="M8.36548 54.5359L10.6668 45.3333L12.9681 54.5359C13.1948 55.4453 12.9281 56.4052 12.2668 57.0692L10.6668 58.6666L9.06681 57.0666C8.40548 56.4053 8.13881 55.4426 8.36548 54.5359Z" fill="#026BCF"/>
<path d="M16 61.3333C18.9467 61.3333 21.3333 58.9466 21.3333 56V48C21.3333 44.384 18.92 41.3653 15.6267 40.3733L10.6667 45.3333L12.968 54.536C13.1947 55.4453 12.928 56.4053 12.2667 57.0693L10.6667 58.6666L9.06667 57.0666C8.40533 56.4053 8.13867 55.4426 8.36533 54.5333L10.6667 45.3333L5.70667 40.3733C2.41333 41.3653 0 44.384 0 48V56C0 58.9466 2.38667 61.3333 5.33333 61.3333H16Z" fill="#026BCF"/>
</g>
<defs>
<clipPath id="clip0_669_48232">
<rect width="64" height="64" fill="white"/>
</clipPath>
</defs>
</svg>
