<svg width="36" height="36" viewBox="0 0 36 36" fill="none" xmlns="http://www.w3.org/2000/svg">
<path d="M9.73879 3.375C9.14992 3.375 8.56984 3.58594 8.08644 3.97266L8.01613 4.00781L7.98098 4.04297L4.46535 7.66406L4.50051 7.69922C3.41506 8.70117 3.08107 10.1997 3.55129 11.4961C3.55568 11.5049 3.54689 11.5225 3.55129 11.5312C4.5049 14.2603 6.94387 19.5293 11.7075 24.293C16.4888 29.0742 21.8281 31.4165 24.4693 32.4492H24.5044C25.8711 32.9062 27.3521 32.5811 28.4068 31.6758L31.9575 28.125C32.8892 27.1934 32.8892 25.5762 31.9575 24.6445L27.3872 20.0742L27.3521 20.0039C26.4204 19.0723 24.7681 19.0723 23.8364 20.0039L21.5864 22.2539C20.7735 21.8628 18.8355 20.8608 16.981 19.0898C15.1397 17.332 14.1992 15.3105 13.8521 14.5195L16.1021 12.2695C17.0469 11.3247 17.0645 9.75147 16.0669 8.82422L16.1021 8.78906L15.9966 8.68359L11.4966 4.04297L11.4614 4.00781L11.3911 3.97266C10.9077 3.58594 10.3277 3.375 9.73879 3.375ZM9.73879 5.625C9.82228 5.625 9.90578 5.66455 9.98488 5.73047L14.4849 10.3359L14.5904 10.4414C14.5816 10.4326 14.6563 10.5513 14.52 10.6875L11.7075 13.5L11.1802 13.9922L11.4263 14.6953C11.4263 14.6953 12.7183 18.1538 15.4341 20.7422L15.6802 20.9531C18.2949 23.3394 21.3755 24.6445 21.3755 24.6445L22.0786 24.9609L25.4185 21.6211C25.6118 21.4277 25.5767 21.4277 25.77 21.6211L30.3755 26.2266C30.5689 26.4199 30.5689 26.3496 30.3755 26.543L26.9302 29.9883C26.4116 30.4321 25.8623 30.5244 25.2075 30.3047C22.6587 29.3027 17.7061 27.1274 13.2896 22.7109C8.83791 18.2593 6.5132 13.21 5.66066 10.7578C5.48928 10.3008 5.61232 9.62402 6.01223 9.28125L6.08254 9.21094L9.49269 5.73047C9.5718 5.66455 9.65529 5.625 9.73879 5.625Z" fill="#F7F7F7"/>
</svg>
