<svg width="32" height="32" viewBox="0 0 32 32" fill="none" xmlns="http://www.w3.org/2000/svg">
<path d="M8.99205 2.67466C7.19605 1.672 5.07005 2.51866 4.30005 4.21533L16.084 16L22.0934 9.99066L8.99205 2.67466Z" fill="url(#paint0_linear_261_21466)"/>
<path d="M22.0934 22.0093L16.084 16L4.30005 27.7847C5.07072 29.482 7.19672 30.328 8.99205 29.326L22.0934 22.0093Z" fill="url(#paint1_linear_261_21466)"/>
<path d="M27.6127 18.9287C28.7593 18.2887 29.3327 17.1447 29.3333 16C29.3327 14.8553 28.7593 13.7107 27.6127 13.0713L22.0933 9.99066L16.084 16L22.0933 22.0093L27.6127 18.9287Z" fill="url(#paint2_linear_261_21466)"/>
<path d="M4.3 4.21533C4.112 4.632 4 5.10133 4 5.60533V26.3913C4 26.8987 4.10933 27.3667 4.3 27.7847L16.0827 15.998L4.3 4.21533Z" fill="url(#paint3_linear_261_21466)"/>
<defs>
<linearGradient id="paint0_linear_261_21466" x1="12.068" y1="2.16266" x2="16.8647" y2="23.16" gradientUnits="userSpaceOnUse">
<stop stop-color="#35AB4A"/>
<stop offset="0.297" stop-color="#31A145"/>
<stop offset="0.798" stop-color="#288739"/>
<stop offset="1" stop-color="#237A33"/>
</linearGradient>
<linearGradient id="paint1_linear_261_21466" x1="12.772" y1="15.908" x2="14.1294" y2="44.6207" gradientUnits="userSpaceOnUse">
<stop stop-color="#F14E5D"/>
<stop offset="0.499" stop-color="#EA3D4F"/>
<stop offset="1" stop-color="#E12138"/>
</linearGradient>
<linearGradient id="paint2_linear_261_21466" x1="21.962" y1="9.93266" x2="24.3607" y2="29.0747" gradientUnits="userSpaceOnUse">
<stop stop-color="#FFD844"/>
<stop offset="0.519" stop-color="#FFC63F"/>
<stop offset="1" stop-color="#FFB03A"/>
</linearGradient>
<linearGradient id="paint3_linear_261_21466" x1="9.23533" y1="3.934" x2="10.3813" y2="28.5407" gradientUnits="userSpaceOnUse">
<stop offset="0.003" stop-color="#0090E6"/>
<stop offset="1" stop-color="#0065A0"/>
</linearGradient>
</defs>
</svg>
