<svg width="48" height="48" viewBox="0 0 48 48" fill="none" xmlns="http://www.w3.org/2000/svg">
<path d="M42 4H26C24.896 4 24 4.896 24 6V18C24 20.21 25.79 22 28 22H40C42.21 22 44 20.21 44 18V6C44 4.896 43.104 4 42 4ZM37 10C36.814 10 31.186 10 31 10C30.448 10 30 9.552 30 9C30 8.448 30.448 8 31 8C31.186 8 36.814 8 37 8C37.552 8 38 8.448 38 9C38 9.552 37.552 10 37 10Z" fill="#026BCF"/>
<path opacity="0.35" d="M34 12C36.7614 12 39 10.6569 39 9C39 7.34315 36.7614 6 34 6C31.2386 6 29 7.34315 29 9C29 10.6569 31.2386 12 34 12Z" fill="#026BCF"/>
<path opacity="0.35" d="M4 37.8599V26.2579C4 24.8939 4.938 23.7079 6.266 23.3919L10.876 22.3019C13.232 21.7439 15.706 21.9619 17.93 22.9199L26.688 26.6959C29.466 27.8939 30.718 31.1419 29.46 33.8939L30.206 34.8719L39.512 31.5499C41.278 30.8939 43.236 31.8319 43.832 33.6179C44.356 35.1899 43.644 36.9079 42.162 37.6499L32.916 42.3059C31.074 43.2259 28.942 43.3779 26.988 42.7279L14.708 38.6339C12.958 38.0499 11.068 38.0459 9.314 38.6179L6.37 39.5799C5.202 39.9619 4 39.0899 4 37.8599Z" fill="#026BCF"/>
</svg>
