<svg width="48" height="48" viewBox="0 0 48 48" fill="none" xmlns="http://www.w3.org/2000/svg">
<path opacity="0.35" d="M24 44C35.0457 44 44 35.0457 44 24C44 12.9543 35.0457 4 24 4C12.9543 4 4 12.9543 4 24C4 35.0457 12.9543 44 24 44Z" fill="#026BCF"/>
<path d="M20 34H27.186C29.998 34 32.434 32.046 33.044 29.302L34 25V22C34 19.79 32.21 18 30 18H20C16.686 18 14 20.686 14 24V28C14 31.314 16.686 34 20 34Z" fill="#026BCF"/>
<path d="M20.094 25.35L14.55 21.484L19.478 10.922C19.888 10.1 20.888 9.76596 21.71 10.176C23.592 11.114 24.47 13.316 23.752 15.292L20.094 25.35Z" fill="#026BCF"/>
</svg>
