<svg width="118" height="118" viewBox="0 0 118 118" fill="none" xmlns="http://www.w3.org/2000/svg">
<g clip-path="url(#clip0_685_49494)">
<path opacity="0.35" d="M98.3333 69.3299V44.25L68.8333 14.75H34.4167C26.2697 14.75 19.6667 21.3531 19.6667 29.5V88.5C19.6667 96.6469 26.2697 103.25 34.4167 103.25H70.9082C74.7038 111.923 83.3424 118 93.4167 118C106.992 118 118 106.992 118 93.4167C118 81.5232 109.553 71.6063 98.3333 69.3299Z" fill="#026BCF"/>
<path d="M68.8333 34.4167V14.75L98.3333 44.25H78.6667C73.2338 44.25 68.8333 39.8496 68.8333 34.4167Z" fill="#026BCF"/>
<path d="M68.8333 93.4166C68.8333 79.8417 79.8418 68.8333 93.4167 68.8333C106.992 68.8333 118 79.8417 118 93.4166C118 106.992 106.992 118 93.4167 118C79.8418 118 68.8333 106.992 68.8333 93.4166ZM106.47 91.5483L92.5563 79.6696C90.9583 78.3077 88.5 79.4434 88.5 81.5379V88.4999H83.5833C80.8693 88.4999 78.6667 90.7026 78.6667 93.4166C78.6667 96.1306 80.8693 98.3333 83.5833 98.3333H88.5V105.295C88.5 107.395 90.9583 108.526 92.5563 107.164L106.47 95.2849C107.616 94.3065 107.616 92.5267 106.47 91.5483Z" fill="#026BCF"/>
<path d="M73.75 59V54.0833C73.75 48.6603 69.3398 44.25 63.9167 44.25H54.0833C48.6603 44.25 44.25 48.6603 44.25 54.0833V59C38.8171 59 34.4167 63.4004 34.4167 68.8333V83.5833C34.4167 89.0163 38.8171 93.4167 44.25 93.4167H59C59 79.0649 67.8402 66.7487 80.3531 61.5911C78.6077 59.9981 76.3018 59 73.75 59ZM54.0833 59V54.0833H63.9167V59H54.0833Z" fill="#026BCF"/>
</g>
<defs>
<clipPath id="clip0_685_49494">
<rect width="118" height="118" fill="white"/>
</clipPath>
</defs>
</svg>
