<svg width="118" height="118" viewBox="0 0 118 118" fill="none" xmlns="http://www.w3.org/2000/svg">
<path d="M24.5834 34.4167C16.4365 34.4167 9.83337 41.0198 9.83337 49.1667V68.8334C9.83337 76.9803 16.4365 83.5834 24.5834 83.5834H44.25V34.4167H24.5834Z" fill="#026BCF"/>
<path opacity="0.35" d="M97.1828 10.5806C93.4953 9.05156 89.2817 9.89723 86.4645 12.7145C80.4268 18.7472 61.0748 34.4166 44.25 34.4166C38.822 34.4166 34.4166 38.822 34.4166 44.25V73.75C34.4166 79.178 38.822 83.5833 44.25 83.5833C60.9666 83.5833 80.3973 99.2576 86.4645 105.285C88.3475 107.169 90.855 108.167 93.4166 108.167C94.6851 108.167 95.9635 107.921 97.1828 107.419C100.856 105.895 103.25 102.311 103.25 98.3333V19.6666C103.25 15.6891 100.856 12.1048 97.1828 10.5806Z" fill="#026BCF"/>
<path d="M44.25 63.9167H24.5834C24.5834 63.9167 29.5 99.9264 29.5 100.792C29.5 104.863 32.804 108.167 36.875 108.167C40.946 108.167 44.25 104.863 44.25 100.792C44.25 99.9264 44.25 63.9167 44.25 63.9167Z" fill="#026BCF"/>
<path d="M103.25 45.1547V72.8502C108.968 70.8197 113.083 65.4162 113.083 59.0049C113.083 52.5936 108.968 47.1852 103.25 45.1547Z" fill="#026BCF"/>
</svg>
