<svg width="118" height="118" viewBox="0 0 118 118" fill="none" xmlns="http://www.w3.org/2000/svg">
<path opacity="0.35" d="M118 19.6667H49.1666C43.7337 19.6667 39.3333 24.0672 39.3333 29.5001V78.6667H118V19.6667Z" fill="#026BCF"/>
<path d="M88.5001 68.8333C98.004 68.8333 105.708 60.0283 105.708 49.1667C105.708 38.3051 98.004 29.5 88.5001 29.5C78.9962 29.5 71.2917 38.3051 71.2917 49.1667C71.2917 60.0283 78.9962 68.8333 88.5001 68.8333Z" fill="#026BCF"/>
<path d="M54.0834 54.0833C56.7988 54.0833 59.0001 51.8821 59.0001 49.1667C59.0001 46.4513 56.7988 44.25 54.0834 44.25C51.368 44.25 49.1667 46.4513 49.1667 49.1667C49.1667 51.8821 51.368 54.0833 54.0834 54.0833Z" fill="#026BCF"/>
<path d="M0 49.1667L13.9043 35.2623C17.5968 31.5699 22.597 29.5 27.8136 29.5H39.3333V68.9464L56.5662 61.9746C61.0207 60.1702 66.1243 61.2076 69.5217 64.6099C74.4531 69.5413 74.1433 77.6293 68.8481 82.1673L51.2071 97.2861C46.7182 101.131 40.9952 103.235 35.0853 103.206L0 103.029V49.1667Z" fill="#026BCF"/>
</svg>
