<svg width="36" height="36" viewBox="0 0 36 36" fill="none" xmlns="http://www.w3.org/2000/svg">
<path d="M18 3.01465C12.216 3.01465 7.51172 7.72186 7.51172 13.5059C7.51172 20.2304 16.4618 31.1538 16.8428 31.6143L18 33.0176L19.1572 31.6143C19.5382 31.1523 28.4883 20.2304 28.4883 13.5059C28.4883 7.72036 23.784 3.01465 18 3.01465ZM18 6.01465C22.1295 6.01465 25.4883 9.37636 25.4883 13.5059C25.4883 17.5634 20.817 24.5418 18 28.2393C15.183 24.5448 10.5117 17.5694 10.5117 13.5059C10.5117 9.37636 13.8705 6.01465 18 6.01465ZM18 9.75C15.9285 9.75 14.25 11.4285 14.25 13.5C14.25 15.5715 15.9285 17.25 18 17.25C20.0715 17.25 21.75 15.5715 21.75 13.5C21.75 11.4285 20.0715 9.75 18 9.75Z" fill="#F7F7F7"/>
</svg>
