<svg width="64" height="64" viewBox="0 0 64 64" fill="none" xmlns="http://www.w3.org/2000/svg">
<path opacity="0.35" d="M56 16C56 13.0533 53.6133 10.6666 50.6667 10.6666H13.3333C10.3867 10.6666 8 13.0533 8 16V48C8 52.4186 11.5813 56 16 56H48C52.4187 56 56 52.4186 56 48V16Z" fill="#026BCF"/>
<path d="M21.3333 40C24.2789 40 26.6667 37.6122 26.6667 34.6667C26.6667 31.7212 24.2789 29.3334 21.3333 29.3334C18.3878 29.3334 16 31.7212 16 34.6667C16 37.6122 18.3878 40 21.3333 40Z" fill="#026BCF"/>
<path d="M25.6295 50.6666H17.0375C14.9922 50.6666 13.3335 49.008 13.3335 46.9626V46.368C13.3335 44.3253 14.9922 42.6666 17.0375 42.6666H25.6322C27.6748 42.6666 29.3335 44.3253 29.3335 46.3706V46.9653C29.3335 49.008 27.6748 50.6666 25.6295 50.6666Z" fill="#026BCF"/>
<path d="M48 8H16C11.5813 8 8 11.5813 8 16V24H56V16C56 11.5813 52.4187 8 48 8ZM16 18.6667C14.528 18.6667 13.3333 17.472 13.3333 16C13.3333 14.528 14.528 13.3333 16 13.3333C17.472 13.3333 18.6667 14.528 18.6667 16C18.6667 17.472 17.472 18.6667 16 18.6667ZM24 18.6667C22.528 18.6667 21.3333 17.472 21.3333 16C21.3333 14.528 22.528 13.3333 24 13.3333C25.472 13.3333 26.6667 14.528 26.6667 16C26.6667 17.472 25.472 18.6667 24 18.6667ZM48 18.6667C47.504 18.6667 35.1627 18.6667 34.6667 18.6667C33.1947 18.6667 32 17.472 32 16C32 14.528 33.1947 13.3333 34.6667 13.3333C35.1627 13.3333 47.504 13.3333 48 13.3333C49.472 13.3333 50.6667 14.528 50.6667 16C50.6667 17.472 49.472 18.6667 48 18.6667Z" fill="#026BCF"/>
<path d="M47.9998 37.3333H37.3332C35.8612 37.3333 34.6665 36.1387 34.6665 34.6667C34.6665 33.1947 35.8612 32 37.3332 32H47.9998C49.4718 32 50.6665 33.1947 50.6665 34.6667C50.6665 36.1387 49.4718 37.3333 47.9998 37.3333Z" fill="#026BCF"/>
<path d="M47.9998 48H37.3332C35.8612 48 34.6665 46.8053 34.6665 45.3333C34.6665 43.8613 35.8612 42.6666 37.3332 42.6666H47.9998C49.4718 42.6666 50.6665 43.8613 50.6665 45.3333C50.6665 46.8053 49.4718 48 47.9998 48Z" fill="#026BCF"/>
</svg>
