<svg width="64" height="64" viewBox="0 0 64 64" fill="none" xmlns="http://www.w3.org/2000/svg">
<path d="M24 53.3334C24 57.752 27.5813 61.3334 32 61.3334C36.4187 61.3334 40 57.752 40 53.3334H24Z" fill="#026BCF"/>
<path opacity="0.35" d="M50.6668 28.4453V24.784C50.6668 14.5626 42.7922 5.65065 32.5735 5.34398C22.0028 5.02398 13.3335 13.4986 13.3335 24V28.4453C13.3335 32.4853 12.0242 36.4133 9.60016 39.6453L6.5335 43.7333C5.75483 44.7706 5.3335 46.0346 5.3335 47.3333C5.3335 50.648 8.01883 53.3333 11.3335 53.3333H52.6668C55.9815 53.3333 58.6668 50.648 58.6668 47.3333C58.6668 46.0346 58.2455 44.7706 57.4668 43.7333L54.4002 39.6453C51.9762 36.4133 50.6668 32.4826 50.6668 28.4453Z" fill="#026BCF"/>
<path d="M58.6666 26.6667C57.1946 26.6667 56 25.4747 56 24C56 20.6827 55.3226 17.4533 53.9893 14.4C53.3973 13.0507 54.0133 11.4773 55.3626 10.8907C56.712 10.296 58.2853 10.9147 58.8746 12.2667C60.5066 15.992 61.3333 19.9413 61.3333 24C61.3333 25.4747 60.1386 26.6667 58.6666 26.6667Z" fill="#026BCF"/>
<path d="M5.33317 26.6666C3.86117 26.6666 2.6665 25.4746 2.6665 23.9999C2.6665 19.9413 3.49317 15.9919 5.12517 12.2666C5.7145 10.9146 7.28784 10.2986 8.63717 10.8906C9.9865 11.4799 10.6025 13.0533 10.0105 14.3999C8.67717 17.4533 7.99984 20.6826 7.99984 23.9999C7.99984 25.4746 6.80517 26.6666 5.33317 26.6666Z" fill="#026BCF"/>
</svg>
