<svg width="118" height="118" viewBox="0 0 118 118" fill="none" xmlns="http://www.w3.org/2000/svg">
<path opacity="0.35" d="M19.6667 93.4166V24.5833C19.6667 16.4363 26.2697 9.83325 34.4167 9.83325H68.8333L98.3333 39.3333V93.4166C98.3333 101.564 91.7302 108.167 83.5833 108.167H34.4167C26.2697 108.167 19.6667 101.564 19.6667 93.4166Z" fill="#026BCF"/>
<path d="M68.8333 29.4999V9.83325L98.3333 39.3333H78.6667C73.2338 39.3333 68.8333 34.9328 68.8333 29.4999Z" fill="#026BCF"/>
<path d="M106.505 95.4522C107.503 93.0922 108.058 90.4962 108.058 87.7724C108.058 76.9016 99.2626 68.1057 88.3918 68.1057C77.5407 68.1057 68.7252 76.9016 68.7252 87.7724C68.7252 98.6431 77.5407 107.439 88.3918 107.439C91.1206 107.439 93.7117 106.883 96.0717 105.885L105.31 115.124C106.731 116.564 108.634 117.277 110.517 117.277C112.4 117.277 114.303 116.564 115.738 115.124C118.6 112.243 118.6 107.557 115.738 104.676L106.505 95.4522ZM88.3967 97.6008C82.9638 97.6008 78.5634 93.2004 78.5634 87.7675C78.5634 82.3345 82.9638 77.9341 88.3967 77.9341C93.8297 77.9341 98.2301 82.3345 98.2301 87.7675C98.2301 93.2004 93.8297 97.6008 88.3967 97.6008Z" fill="#026BCF"/>
<path d="M56.5417 44.25C60.6148 44.25 63.9167 40.9481 63.9167 36.875C63.9167 32.8019 60.6148 29.5 56.5417 29.5C52.4686 29.5 49.1667 32.8019 49.1667 36.875C49.1667 40.9481 52.4686 44.25 56.5417 44.25Z" fill="#026BCF"/>
<path d="M63.9167 59.0001H49.1667C46.4527 59.0001 44.25 56.7974 44.25 54.0834C44.25 51.3694 46.4527 49.1667 49.1667 49.1667H63.9167C66.6307 49.1667 68.8333 51.3694 68.8333 54.0834C68.8333 56.7974 66.6307 59.0001 63.9167 59.0001Z" fill="#026BCF"/>
<path d="M39.3333 68.8333C36.6193 68.8333 34.4167 71.0359 34.4167 73.7499C34.4167 76.4639 36.6193 78.6666 39.3333 78.6666H60.7159C62.0139 74.9988 64.0101 71.6702 66.5569 68.8333H39.3333Z" fill="#026BCF"/>
<path d="M39.3333 88.5C36.6193 88.5 34.4167 90.7027 34.4167 93.4167C34.4167 96.1307 36.6193 98.3333 39.3333 98.3333H60.7159C59.6244 95.2555 59 91.9515 59 88.5H39.3333Z" fill="#026BCF"/>
</svg>
