<svg width="64" height="64" viewBox="0 0 64 64" fill="none" xmlns="http://www.w3.org/2000/svg">
<path opacity="0.35" d="M45.3335 26.6666C49.7518 26.6666 53.3335 23.0849 53.3335 18.6666C53.3335 14.2483 49.7518 10.6666 45.3335 10.6666C40.9152 10.6666 37.3335 14.2483 37.3335 18.6666C37.3335 23.0849 40.9152 26.6666 45.3335 26.6666Z" fill="#026BCF"/>
<path d="M56.0002 18.6667C56.0002 17.6534 56.4562 16.7494 57.1735 16.144C57.8108 15.6027 58.0908 14.744 57.7975 13.96C57.2802 12.592 56.5468 11.3307 55.6375 10.2214C55.1255 9.59737 54.2668 9.36004 53.5148 9.64804C52.6108 9.99471 51.5708 9.94937 50.6668 9.42937C49.7602 8.90671 49.2002 8.02137 49.0535 7.06404C48.9335 6.28004 48.3122 5.65337 47.5308 5.52004C46.8162 5.39737 46.0828 5.33337 45.3335 5.33337C44.5842 5.33337 43.8508 5.39737 43.1388 5.52004C42.3575 5.65337 41.7362 6.28004 41.6162 7.06404C41.4668 8.02137 40.9068 8.90671 40.0002 9.42937C39.0962 9.95204 38.0562 9.99471 37.1522 9.64804C36.4002 9.35737 35.5415 9.59737 35.0295 10.2214C34.1175 11.3334 33.3842 12.592 32.8695 13.96C32.5735 14.744 32.8535 15.6027 33.4935 16.144C34.2108 16.7494 34.6668 17.6534 34.6668 18.6667C34.6668 19.68 34.2108 20.584 33.4935 21.1894C32.8562 21.7307 32.5762 22.5894 32.8695 23.3734C33.3868 24.7414 34.1202 26.0027 35.0295 27.112C35.5415 27.736 36.4002 27.9734 37.1522 27.6854C38.0535 27.3387 39.0962 27.3814 40.0002 27.904C40.9068 28.4267 41.4668 29.312 41.6135 30.2694C41.7335 31.0534 42.3548 31.68 43.1362 31.8134C43.8508 31.936 44.5842 32 45.3335 32C46.0828 32 46.8162 31.936 47.5282 31.8134C48.3095 31.68 48.9308 31.0534 49.0508 30.2694C49.1975 29.3094 49.7575 28.4267 50.6642 27.904C51.5682 27.3814 52.6082 27.3387 53.5122 27.6854C54.2642 27.976 55.1228 27.736 55.6348 27.112C56.5468 26 57.2802 24.7414 57.7948 23.3734C58.0908 22.592 57.8108 21.7307 57.1708 21.1894C56.4562 20.584 56.0002 19.68 56.0002 18.6667ZM45.3335 24C42.3868 24 40.0002 21.6107 40.0002 18.6667C40.0002 15.7227 42.3868 13.3334 45.3335 13.3334C48.2802 13.3334 50.6668 15.7227 50.6668 18.6667C50.6668 21.6107 48.2802 24 45.3335 24Z" fill="#026BCF"/>
<path opacity="0.35" d="M5.3335 50.48V35.0107C5.3335 33.192 6.58416 31.6107 8.35483 31.1894L14.5015 29.736C17.6428 28.992 20.9415 29.2827 23.9068 30.56L35.5842 35.5947C39.2882 37.192 40.9575 41.5227 39.2802 45.192L40.2748 46.496L52.6828 42.0667C55.0375 41.192 57.6482 42.4427 58.4428 44.824C59.1415 46.92 58.1922 49.2107 56.2162 50.2L43.8882 56.408C41.4322 57.6347 38.5895 57.8374 35.9842 56.9707L19.6108 51.512C17.2775 50.7334 14.7575 50.728 12.4188 51.4907L8.4935 52.7734C6.93616 53.2827 5.3335 52.12 5.3335 50.48Z" fill="#026BCF"/>
</svg>
