<svg width="118" height="118" viewBox="0 0 118 118" fill="none" xmlns="http://www.w3.org/2000/svg">
<path opacity="0.35" d="M24.5834 103.25H73.75C81.897 103.25 88.5 96.6469 88.5 88.5V29.5C88.5 21.3531 81.897 14.75 73.75 14.75H29.5L9.83337 34.4167V88.5C9.83337 96.6469 16.4365 103.25 24.5834 103.25Z" fill="#026BCF"/>
<path d="M29.5 29.5V14.75L9.83337 34.4167H24.5834C27.2974 34.4167 29.5 32.214 29.5 29.5Z" fill="#026BCF"/>
<path d="M111.643 35.8573C109.72 33.9349 106.613 33.9349 104.691 35.8573L100.856 39.6923C97.9794 38.9941 94.8376 39.6726 92.3547 41.4524C86.5825 37.1651 78.3963 37.5732 73.16 42.8094L65.3622 50.6073C63.4398 52.5297 63.4398 55.637 65.3622 57.5594C66.316 58.5182 67.5747 59 68.8334 59C70.092 59 71.3507 58.5182 72.3095 57.5594L80.1073 49.7665C81.4004 48.4734 83.2146 48.1293 84.8617 48.5767L63.2825 69.5856C60.4701 72.3242 58.351 75.7019 57.112 79.4239L54.0834 88.5C54.0834 91.214 56.286 93.4167 59 93.4167L68.0811 90.388C71.808 89.1441 75.1808 87.0299 77.9194 84.2176L105.286 56.1189C107.857 53.5524 108.683 49.9189 107.813 46.6395L111.643 42.8094C113.565 40.887 113.565 37.7797 111.643 35.8573Z" fill="#026BCF"/>
<path d="M44.25 73.75H29.5C26.786 73.75 24.5834 71.5474 24.5834 68.8334C24.5834 66.1194 26.786 63.9167 29.5 63.9167H44.25C46.964 63.9167 49.1667 66.1194 49.1667 68.8334C49.1667 71.5474 46.964 73.75 44.25 73.75Z" fill="#026BCF"/>
<path d="M49.1667 54.0833H29.5C26.786 54.0833 24.5834 51.8807 24.5834 49.1667C24.5834 46.4527 26.786 44.25 29.5 44.25H49.1667C51.8807 44.25 54.0834 46.4527 54.0834 49.1667C54.0834 51.8807 51.8807 54.0833 49.1667 54.0833Z" fill="#026BCF"/>
<path d="M34.4167 93.4166H29.5C26.786 93.4166 24.5834 91.214 24.5834 88.5C24.5834 85.786 26.786 83.5833 29.5 83.5833H34.4167C37.1307 83.5833 39.3334 85.786 39.3334 88.5C39.3334 91.214 37.1307 93.4166 34.4167 93.4166Z" fill="#026BCF"/>
</svg>
