<svg width="118" height="118" viewBox="0 0 118 118" fill="none" xmlns="http://www.w3.org/2000/svg">
<g clip-path="url(#clip0_669_48279)">
<path opacity="0.35" d="M103.25 29.5001V88.5001C103.25 96.8584 96.8583 103.25 88.5 103.25H40.3167L14.75 77.6834V29.5001C14.75 24.0917 19.175 19.6667 24.5833 19.6667H93.4167C98.825 19.6667 103.25 24.0917 103.25 29.5001Z" fill="#026BCF"/>
<path d="M88.5 14.75H29.5C21.1417 14.75 14.75 21.1417 14.75 29.5V44.25H103.25V29.5C103.25 21.1417 96.8583 14.75 88.5 14.75ZM29.5 34.4167C26.55 34.4167 24.5833 32.45 24.5833 29.5C24.5833 26.55 26.55 24.5833 29.5 24.5833C32.45 24.5833 34.4167 26.55 34.4167 29.5C34.4167 32.45 32.45 34.4167 29.5 34.4167ZM44.25 34.4167C41.3 34.4167 39.3333 32.45 39.3333 29.5C39.3333 26.55 41.3 24.5833 44.25 24.5833C47.2 24.5833 49.1667 26.55 49.1667 29.5C49.1667 32.45 47.2 34.4167 44.25 34.4167ZM88.5 34.4167C87.5167 34.4167 64.9 34.4167 63.9167 34.4167C60.9667 34.4167 59 32.45 59 29.5C59 26.55 60.9667 24.5833 63.9167 24.5833C64.9 24.5833 87.5167 24.5833 88.5 24.5833C91.45 24.5833 93.4167 26.55 93.4167 29.5C93.4167 32.45 91.45 34.4167 88.5 34.4167Z" fill="#026BCF"/>
<path d="M10.8166 79.65L38.35 107.183C40.3166 109.15 44.25 107.675 44.25 104.725V79.65C44.25 76.2083 41.7916 73.75 38.35 73.75H13.275C10.325 73.75 8.84996 77.6833 10.8166 79.65Z" fill="#026BCF"/>
<path d="M27.0416 77.1917L40.8083 90.9583L15.2416 116.525C13.275 118.492 9.8333 118.492 7.86663 116.525L0.983301 109.642C-0.983366 107.675 -0.983366 104.233 0.983301 102.267L27.0416 77.1917Z" fill="#026BCF"/>
</g>
<defs>
<clipPath id="clip0_669_48279">
<rect width="118" height="118" fill="white"/>
</clipPath>
</defs>
</svg>
