<svg width="118" height="118" viewBox="0 0 118 118" fill="none" xmlns="http://www.w3.org/2000/svg">
<path opacity="0.35" fill-rule="evenodd" clip-rule="evenodd" d="M44.2058 19.1603C47.0132 13.7913 53.4393 9.77435 60.6816 9.77435C67.9238 9.77435 74.3548 13.7864 77.1573 19.1603C82.9393 17.346 90.3192 19.0521 95.4473 24.1753C100.57 29.2984 102.277 36.6784 100.462 42.4653C105.831 45.2727 109.848 51.6988 109.848 58.941C109.848 66.1833 105.836 72.6094 100.462 75.4168C102.277 81.1988 100.57 88.5787 95.4473 93.7068C90.3241 98.8299 82.9442 100.536 77.1573 98.7218C74.3499 104.091 67.9238 108.108 60.6816 108.108C53.4393 108.108 47.0132 104.096 44.2058 98.7218C38.4238 100.536 31.039 98.8299 25.9158 93.7068C20.7926 88.5836 19.0866 81.1988 20.9008 75.4168C15.5318 72.6094 11.5149 66.1833 11.5149 58.941C11.5149 51.6988 15.5269 45.2678 20.9008 42.4653C19.0866 36.6833 20.7926 29.3034 25.9158 24.1753C31.039 19.0521 38.4238 17.3509 44.2058 19.1603Z" fill="#026BCF"/>
<path d="M54.0833 78.6667C52.8246 78.6667 51.566 78.1848 50.6072 77.2261L35.8572 62.4761C33.9348 60.5537 33.9348 57.4463 35.8572 55.5239C37.7796 53.6015 40.887 53.6015 42.8094 55.5239L54.0833 66.7978L75.1906 45.6906C77.113 43.7682 80.2203 43.7682 82.1427 45.6906C84.0651 47.613 84.0651 50.7203 82.1427 52.6428L57.5594 77.2261C56.6006 78.1848 55.342 78.6667 54.0833 78.6667Z" fill="#026BCF"/>
</svg>
